<svg width="512" height="512" viewBox="0 0 512 512" fill="none" xmlns="http://www.w3.org/2000/svg">
<rect width="512" height="512" rx="120" fill="#0F172A"/>
<path d="M256 120C185.307 120 128 141.487 128 168C128 194.513 185.307 216 256 216C326.693 216 384 194.513 384 168C384 141.487 326.693 120 256 120Z" stroke="#3B82F6" stroke-width="24"/>
<path d="M128 168V344C128 370.513 185.307 392 256 392C326.693 392 384 370.513 384 344V168" stroke="#3B82F6" stroke-width="24" stroke-linecap="round"/>
<path d="M128 256C128 282.513 185.307 304 256 304C326.693 304 384 282.513 384 256" stroke="#3B82F6" stroke-width="24" stroke-linecap="round" stroke-dasharray="40 40"/>
<path d="M210 230L270 280L340 190" stroke="#60A5FA" stroke-width="32" stroke-linecap="round" stroke-linejoin="round"/>
<defs>
<filter id="filter0_d_1_2" x="0" y="0" width="512" height="512" filterUnits="userSpaceOnUse" color-interpolation-filters="sRGB">
<feFlood flood-opacity="0" result="BackgroundImageFix"/>
<feColorMatrix in="SourceAlpha" type="matrix" values="0 0 0 0 0 0 0 0 0 0 0 0 0 0 0 0 0 0 127 0" result="hardAlpha"/>
<feOffset dy="4"/>
<feGaussianBlur stdDeviation="2"/>
<feComposite in2="hardAlpha" operator="out"/>
<feColorMatrix type="matrix" values="0 0 0 0 0 0 0 0 0 0 0 0 0 0 0 0 0 0 0.25 0"/>
<feBlend mode="normal" in2="BackgroundImageFix" result="effect1_dropShadow_1_2"/>
<feBlend mode="normal" in="SourceGraphic" in2="effect1_dropShadow_1_2" result="shape"/>
</filter>
</defs>
</svg>